<svg xmlns="http://www.w3.org/2000/svg" viewBox="0 0 64 64" fill="none">
  <rect width="64" height="64" rx="16" fill="#5865f2"/>
  <rect width="64" height="64" rx="16" fill="url(#dg)" opacity="0.4"/>
  <defs>
    <linearGradient id="dg" x1="0" y1="0" x2="0" y2="1">
      <stop offset="0" stop-color="#ffffff" stop-opacity="0.3"/>
      <stop offset="1" stop-color="#000000" stop-opacity="0.2"/>
    </linearGradient>
  </defs>
  <path d="M43.5 20.5C41.3 19.5 39 18.8 36.5 18.4L36.2 19C33.8 18.6 31.4 18.6 29 19L28.7 18.4C26.2 18.8 23.9 19.5 21.7 20.5C17.1 27.2 15.9 33.7 16.4 40.1C19.1 42.1 21.7 43.3 24.3 44.1L25.3 42.7C24.1 42.2 23 41.6 22 40.9L22.5 40.5C27.6 43 33.6 43 38.7 40.5L39.2 40.9C38.2 41.6 37.1 42.2 35.9 42.7L36.9 44.1C39.5 43.3 42.1 42.1 44.8 40.1C45.4 32.7 43.4 26.3 43.5 20.5ZM26.8 36.5C25.3 36.5 24 35.1 24 33.4C24 31.6 25.3 30.2 26.8 30.2C28.4 30.2 29.6 31.6 29.6 33.4C29.6 35.1 28.4 36.5 26.8 36.5ZM37.2 36.5C35.7 36.5 34.4 35.1 34.4 33.4C34.4 31.6 35.7 30.2 37.2 30.2C38.8 30.2 40 31.6 40 33.4C40 35.1 38.8 36.5 37.2 36.5Z" fill="white"/>
</svg>
