<svg xmlns="http://www.w3.org/2000/svg" viewBox="0 0 64 64" fill="none">
  <circle cx="32" cy="32" r="32" fill="#4c1d95"/>
  <ellipse cx="32" cy="30" rx="18" ry="20" fill="#fff" stroke="#1e0062" stroke-width="2.5"/>
  <path d="M14 30 Q14 52 20 52 Q24 44 27 52 Q30 44 32 52 Q34 44 37 52 Q40 44 44 52 Q50 52 50 30 Q50 10 32 10 Q14 10 14 30Z" fill="#e9d5ff" stroke="#1e0062" stroke-width="2.5" stroke-linejoin="round"/>
  <ellipse cx="24" cy="28" rx="5" ry="4" fill="#1e0062"/>
  <ellipse cx="40" cy="28" rx="5" ry="4" fill="#1e0062"/>
  <ellipse cx="24" cy="27" rx="2" ry="2" fill="#fff"/>
  <ellipse cx="40" cy="27" rx="2" ry="2" fill="#fff"/>
  <rect x="19" y="22" width="10" height="4" rx="2" fill="#c084fc" opacity="0.8"/>
  <rect x="35" y="22" width="10" height="4" rx="2" fill="#c084fc" opacity="0.8"/>
  <path d="M26 38 Q32 42 38 38" stroke="#1e0062" stroke-width="2" stroke-linecap="round" fill="none"/>
</svg>
